<?xml version="1.0" encoding="UTF-8"?>
<svg id="Livello_2" data-name="Livello 2" xmlns="http://www.w3.org/2000/svg" viewBox="0 0 440.46 352">
  <defs>
    <style>
      .cls-1 {
        fill: #ff7c43;
      }

      .cls-1, .cls-2 {
        stroke-width: 0px;
      }

      .cls-2 {
        fill: #003f5c;
      }
    </style>
  </defs>
  <g id="Livello_1-2" data-name="Livello 1">
    <g>
      <path class="cls-2" d="M77.48,220.1c26.46,0,49.83-.08,73.2.03,15.92.08,25.28,8.21,25.35,21.66.07,13.47-9.23,22.03-25.05,22.1-41.95.18-83.91.22-125.86-.02-16.55-.09-24.86-8.32-24.95-24.71-.24-41.95-.2-83.91-.02-125.86.07-15.62,8.88-25.15,22.26-25.09,13.34.06,21.74,9.69,21.86,25.3.18,23.38.24,46.76.38,70.14,0,.23.45.45,1.42,1.36,2.78-2.61,5.71-5.2,8.47-7.96C110.47,121.15,166.41,65.25,222.28,9.28c7.01-7.02,14.79-11.29,24.93-8.32,8.95,2.62,14.55,8.67,16.51,17.82,2.21,10.33-3.01,17.64-9.89,24.51-55.46,55.33-110.83,110.76-166.21,166.17-2.8,2.8-5.46,5.73-10.13,10.65Z"/>
      <path class="cls-1" d="M360.16,131.87c-24.37,0-48.75.23-73.12-.08-15.48-.2-25.13-12.11-22.26-26.51,2.16-10.81,11.06-17.13,25.15-17.19,32.67-.15,65.35-.06,98.02-.06,9.65,0,19.32-.26,28.96.11,14.56.57,23.16,8.5,23.28,22.94.37,43.44.38,86.88-.03,130.32-.13,13.86-9.94,22.71-22.61,22.4-12.56-.3-21.22-9.58-21.33-23.57-.19-24.11-.05-48.22-.05-74.99-4.32,4.08-7.14,6.62-9.83,9.3-54.88,54.86-109.75,109.73-164.63,164.59-2.88,2.88-5.7,5.93-8.97,8.31-9.42,6.87-21.29,5.87-29.5-2.14-8.1-7.9-9.44-20.05-2.87-29.46,2.31-3.31,5.38-6.12,8.26-9,54.59-54.63,109.18-109.25,163.86-163.79,2.85-2.85,6.49-4.9,9.77-7.33-.7-1.28-1.4-2.56-2.1-3.84Z"/>
    </g>
  </g>
</svg>