<?xml version="1.0" encoding="UTF-8"?>
<svg id="Livello_2" data-name="Livello 2" xmlns="http://www.w3.org/2000/svg" viewBox="0 0 570.06 570.06">
  <defs>
    <style>
      .cls-1 {
        fill: #41af60;
        stroke-width: 0px;
      }
    </style>
  </defs>
  <g id="Objects">
    <g>
      <path class="cls-1" d="M518.81,166.33v303.16c0,27.21-22.14,49.33-49.33,49.33H100.57c-27.19,0-49.33-22.12-49.33-49.33V100.58c0-27.19,22.14-49.33,49.33-49.33h334.86L477.91.36c-2.78-.23-5.59-.36-8.43-.36H100.57C45.11,0,0,45.13,0,100.58v368.91c0,55.46,45.11,100.57,100.57,100.57h368.91c55.46,0,100.57-45.11,100.57-100.57V104.93l-51.24,61.4Z"/>
      <path class="cls-1" d="M260.48,395.89c-7.29,0-14.3-2.89-19.48-8.07l-104.66-104.66c-10.76-10.76-10.76-28.2,0-38.96,10.76-10.76,28.2-10.76,38.96,0l83.34,83.34L518.71,15.97c9.75-11.68,27.12-13.25,38.81-3.5,11.68,9.75,13.25,27.12,3.5,38.81l-279.38,334.71c-4.96,5.94-12.19,9.52-19.91,9.87-.41.02-.83.03-1.24.03Z"/>
    </g>
  </g>
</svg>