<?xml version="1.0" encoding="UTF-8"?>
<svg id="Livello_2" data-name="Livello 2" xmlns="http://www.w3.org/2000/svg" viewBox="0 0 242.2 319.24">
  <defs>
    <style>
      .cls-1 {
        fill: #7eb745;
      }

      .cls-1, .cls-2 {
        stroke-width: 0px;
      }

      .cls-2 {
        fill: #fff;
      }
    </style>
  </defs>
  <g id="Livello_1-2" data-name="Livello 1">
    <g>
      <path class="cls-1" d="M168.64,43.53c15.86.09,31.72.18,47.58.27,17.64.1,25.94,8.34,25.95,25.97.03,74.63.03,149.26,0,223.89-.01,17.4-8.12,25.55-25.41,25.56-63.71.04-127.41.04-191.12,0-17.41-.01-25.58-8.1-25.59-25.38-.04-74.33-.04-148.66.03-223.01.01-16.77,8.43-25.29,25.01-25.39,15.59-.1,31.18-.02,47.34-.02.39,4.06.56,7.69,1.12,11.26,1.42,9.08,6.31,13.39,13.6,12.26,7.01-1.11,9.65-5.89,8.72-15.21-.29-2.93.01-5.92.04-8.87,0,0-.26.28-.26.28,16.94,0,33.87-.01,50.81-.02l-.22-.2c-.11,3.75-.04,7.53-.39,11.28-.65,6.94,2.28,12,8.1,13.26,6.8,1.45,11.26-1.77,12.88-8.05,1.36-5.16,1.37-10.68,1.98-16.03l-.2.24ZM92.43,214.73c-10.19-10.03-19.47-19.28-28.87-28.39-5.6-5.43-11.74-5.66-16.46-.92-4.67,4.71-4.41,10.82,1.07,16.46,11.31,11.61,22.7,23.02,34.21,34.34,6.2,6.18,12.02,6.25,18.22.11,31.12-30.91,62.14-61.88,93.11-92.92,1.66-1.66,3.12-3.97,3.65-6.22,1.2-5.13-.79-9.3-5.51-11.81-5.5-2.9-9.92-.8-13.96,3.28-21.17,21.23-42.39,42.39-63.57,63.62-7.29,7.33-14.34,14.89-21.6,22.46Z"/>
      <path class="cls-1" d="M95.95,43.23H74.47C79.06,20.34,97.95,2.34,121.48,.26c25.36-2.34,46.44,11.59,52.06,34.5,.71,2.87,1.05,5.84,1.55,8.75,0,0,.2-.24,.2-.24-7.53,0-15.06.01-22.59.01l.22.2c-3.79-14.06-13.21-21.97-25.98-21.75-12.67,.19-22.17,8.52-25,21.82l.26-.28Z"/>
      <path class="cls-2" d="M92.43,214.73c7.26-7.58,14.31-15.16,21.6-22.46,21.18-21.23,42.4-42.39,63.57-63.62,4.04-4.08,8.46-6.18,13.96-3.28,4.72,2.51,6.71,6.67,5.51,11.81-.53,2.25-1.99,4.56-3.65,6.22-30.97,31.04-61.99,62.01-93.11,92.92-6.2,6.13-12.02,6.07-18.22-.11-11.51-11.32-22.9-22.73-34.21-34.34-5.48-5.64-5.74-11.75-1.07-16.46,4.72-4.73,10.87-4.49,16.46,.92,9.4,9.11,18.68,18.36,28.87,28.39Z"/>
      <path class="cls-2" d="M95.69,43.38c2.86-13.23,12.58-21.46,25-21.75,12.77-.21,22.19,7.69,25.98,21.75-16.94,0-33.87,.01-50.81,.02Z"/>
      <path class="cls-2" d="M146.3,43.3c7.53,0,15.06-.01,22.59-.01-1.11,5.35-1.12,10.87-1.98,16.03-1.62,6.28-6.08,9.5-12.88,8.05-5.82-1.26-8.75-6.32-8.1-13.26,.35-3.75,.28-7.53,.39-11.28Z"/>
    </g>
  </g>
</svg>
