<?xml version="1.0" encoding="UTF-8"?>
<svg id="Livello_2" data-name="Livello 2" xmlns="http://www.w3.org/2000/svg" viewBox="0 0 527.06 561.08">
  <defs>
    <style>
      .cls-1 {
        fill: #dc2626;
        fill-rule: evenodd;
        stroke-width: 0px;
      }
    </style>
  </defs>
  <g id="Objects">
    <path class="cls-1" d="M228,1.09c-39.89,0-75.53,10.92-110.83,28.56-24.35,13.4-48.7,31-68.47,50.93l-11.29-6.53c-6.36-4.58-13.06-4.58-19.77,0-4.23,2.1-8.82,6.53-10.94,13.21l-2.12,79.63c-2.47,6.53,2.12,13.23,8.82,15.52,4.23,4.41,10.94,6.51,15.53,2.12l72.7-35.42c6.71-2.1,8.82-8.82,8.82-15.31s-2.11-13.4-8.82-17.81l-4.24-2.12c37.41-33.29,84-53.21,134.82-55.32,121.77-8.82,227.99,84.04,236.83,205.62,8.83,123.86-86.47,229.94-208.23,236.63-84.01,6.7-161.3-33.3-205.41-106.26-8.83-13.21-26.47-17.6-39.88-8.8-8.82,6.7-15.53,13.4-15.53,24.32v2.29c2.12,4.41,2.12,8.8,6.71,13.23,52.94,88.44,152.47,141.65,258.71,134.95,75.17-4.39,141.54-39.82,192.35-97.25,48.71-55.33,73.06-128.27,68.82-201.39-4.58-75.06-39.88-143.77-95.29-194.53C375.89,18.72,303.18-5.59,228,1.09h0Z"/>
  </g>
</svg>